# xmcd
#
# Track frame offsets:
#	150
#	26607
#	44550
#	63317
#	84180
#	103875
#	123375
#	142467
#	159922
#	181880
#	200217
#	225087
#
# Disc length: 3283 seconds
#
# Revision: 1
# Processed by: cddbd v1.5.1PL0 Copyright (c) Steve Scherf et al.
# Submitted via: CDex 1.50Beta5
#
DISCID=a20cd10c
DTITLE=東京パフォーマンスドール - SEVEN ON SEVEN〜Cha-DANCE PARTY VOL.7
DYEAR=1993
DGENRE=Pop
TTITLE0=SEVEN BOWS
TTITLE1=ダイヤモンドは傷つかない
TTITLE2=楽園と迷宮
TTITLE3=バラ色の人生
TTITLE4=浮気なロミオ
TTITLE5=東京エキゾチカ
TTITLE6=ON THE ROAD
TTITLE7=LUNAR
TTITLE8=Sanctuary
TTITLE9=24hours
TTITLE10=言葉と花を束ねて
TTITLE11=涙のパラダイス
EXTD=
EXTT0=
EXTT1=
EXTT2=
EXTT3=
EXTT4=
EXTT5=
EXTT6=
EXTT7=
EXTT8=
EXTT9=
EXTT10=
EXTT11=
PLAYORDER=
